<svg xmlns="http://www.w3.org/2000/svg" viewBox="0 0 315 215" class="svg-logo" width="315"
  height="215" style="height: auto;">
  <rect rx="10" ry="10" width="100%" height="100%" fill="rgba(26, 81, 80, 1.0)"></rect>
  <g data-element="wrapper"
    transform="translate(94.49999999999854 43.099999999998495) scale(0.40000000000000935)">
    <g data-element="container"
      transform="translate(83.55204877461473 33.539736656293485) scale(0.2465753424657534)">
      <g>
        <path id="frame_x5F_1_53_"
          d="M594.8,113.5c-8.4-3.5-16.7-7.1-24.5-10.8c0.8-8.9,1.8-17.8,3-26.6l0.8-5.7l-5.2-2.4
	C484,29.5,393.6,9.9,300,9.9S115.9,29.5,31.2,68.1L26,70.4l0.8,5.7c1.2,8.8,2.2,17.7,3,26.6c-7.9,3.6-16.1,7.2-24.5,10.8L0,115.7
	l0.5,5.7c8.9,92.5,37.1,180.6,83.9,261.8c46.9,81.1,109.1,149.6,184.8,203.5l4.6,3.3l4.5-3.5c7.1-5.4,14.3-10.8,21.6-15.8
	c7.3,5.1,14.5,10.4,21.6,15.8l4.5,3.5l4.6-3.3c75.7-53.9,137.9-122.4,184.8-203.6c46.8-81.3,75.1-169.3,83.9-261.8l0.5-5.7
	L594.8,113.5z M300,25.4c89.5,0,176,18.3,257.2,54.4c-0.7,5.3-1.1,10.8-1.6,16.2C475.1,59.3,389.2,40.7,300,40.7
	c-89.2,0-175.1,18.6-255.5,55.2c-0.5-5.4-1-10.8-1.7-16.2C124,43.7,210.5,25.4,300,25.4z M300,552L300,552L300,552
	c-72.1-50.6-131.1-115.1-175.4-192C80.2,283.2,53.8,199.8,46,112.1c79.8-37.1,165.2-56,254-56c88.7,0,174.2,18.8,254,56
	c-7.7,87.7-34.2,171.1-78.5,247.9C431.1,436.9,372.1,501.5,300,552z M273.6,570.9c-71.8-52.1-130.9-117.8-175.7-195.4
	c-44.8-77.7-72.2-161.8-81.4-250c5-2.2,10-4.3,14.8-6.5c8.6,87.9,35.4,171.6,80,248.8C155.8,445,215,510,286.9,561.3
	C282.4,564.5,278,567.6,273.6,570.9z M502.2,375.5c-44.8,77.6-103.9,143.3-175.8,195.4c-4.4-3.3-8.8-6.4-13.3-9.6
	C385.1,510,444.2,445,488.8,367.8c44.6-77.2,71.4-160.8,80-248.7c4.8,2.2,9.7,4.4,14.8,6.5C574.3,213.7,546.9,297.8,502.2,375.5z"
          fill="rgba(242, 224, 213, 1.0)"></path>
      </g>
    </g>
    <g>
      <g data-element="icon"
        transform="scale(0.15504650312072937) translate(716.9835573294718 396.66341318620573)">
        <path id="color_x5F_2" fill="rgba(166, 102, 65, 1.0)"
          d="M509.623,342.848c0,0,23.755,37.89-29.487,67.359    c-53.243,29.471-163.002,28.066-217.882,103.846c0,0-1.639-58.939,87.645-92.619C439.18,387.754,490.783,374.422,509.623,342.848z     M549.759,454.412c18.021-47.012,39.317-75.078,39.317-75.078c-0.398,0.342-0.805,0.682-1.217,1.021    c-36.923,30.41-130.836,55.398-219.94,81.072c-90.102,25.963-102.389,68.062-102.389,68.062    C337.611,460.377,549.759,454.412,549.759,454.412z M247.783,419.095c-89.283-33.68-140.886-47.012-159.726-78.586    c0,0-23.754,37.89,29.487,67.359c35.742,19.783,96.94,25.685,149.921,50.331c4.94-7.327,10.807-14.22,17.713-20.574    C274.931,431.01,262.64,424.699,247.783,419.095z M229.763,459.09c-89.105-25.675-183.019-50.663-219.941-81.073    c-0.413-0.34-0.818-0.68-1.217-1.021c0,0,21.297,28.066,39.317,75.078c0,0,116.149,3.297,205.769,33.004    c1.987-5.251,4.277-10.385,6.902-15.372C251.488,465.984,241.269,462.404,229.763,459.09z"></path>
        <path id="color_x5F_1" fill="rgba(242, 224, 213, 1.0)"
          d="M459.282,207.008L296.94,63.865l-69.532,61.309v-22.72h-44.039v61.55l-48.771,43.004    h31.391V367.61l127.247,55.548l134.795-55.549c0,0-0.09-102.624-0.139-160.602H459.282z M285.68,318.59h-45.042v-45.044h45.042    V318.59z M285.68,252.635h-45.042v-45.043h45.042V252.635z M353.244,318.59h-45.043v-45.044h45.043V318.59z M353.244,252.635    h-45.043v-45.043h45.043V252.635z"></path>
      </g>
      <text transform="translate(-150 235.0191650390625)" fill="rgba(242, 224, 213, 1.0)"
        font-family="Bigshot One" font-size="64" data-element="company-name"
        dx="0 0 0 0 0 0 0 0 0 0 0 0 0 0 0 0 0">Propiedades del Bosque </text>
      <text transform="translate(11.9921875 276.0191650390625)" fill="rgba(166, 102, 65, 1.0)"
        font-family="Chau Philomene One" font-size="28.8" data-element="slogan"
        dx="0 0 0 0 0 0 0 0 0 0 0 0 0 0 0 0 0 0 0 0 0 0 0 0 0 0">La naturaleza a tu alcance</text>
    </g>
  </g>
</svg>